<svg width="32" height="32" viewBox="0 0 32 32" fill="none" xmlns="http://www.w3.org/2000/svg">
<rect width="32" height="32" rx="2" fill="white" fill-opacity="0.1"/>
<path d="M23.75 16C23.75 19.875 20.9062 23.0938 17.1875 23.6562V18.25H19L19.3438 16H17.1875V14.5625C17.1875 13.9375 17.5 13.3438 18.4688 13.3438H19.4375V11.4375C19.4375 11.4375 18.5625 11.2812 17.6875 11.2812C15.9375 11.2812 14.7812 12.375 14.7812 14.3125V16H12.8125V18.25H14.7812V23.6562C11.0625 23.0938 8.25 19.875 8.25 16C8.25 11.7188 11.7188 8.25 16 8.25C20.2812 8.25 23.75 11.7188 23.75 16Z" fill="white"/>
</svg>
