<svg width="48" height="48" viewBox="0 0 48 48" fill="none" xmlns="http://www.w3.org/2000/svg">
<path d="M24 21.5C25.3281 21.5 26.4219 22.6719 26.5 24C26.5 25.4062 25.3281 26.5 24 26.5C22.5938 26.5 21.4219 25.4062 21.4219 24C21.4219 22.6719 22.5938 21.5 24 21.5ZM40.7969 14C42.2031 16.6562 41.2656 20.3281 38.6094 24C41.2656 27.75 42.2031 31.4219 40.7969 34C39.5469 36.1875 36.8906 37.2812 33.5312 37.2812C32.75 37.2812 32.0469 37.2031 31.2656 37.125C29.5469 41.3438 26.8906 44 24 44C21.0312 44 18.375 41.3438 16.6562 37.125C15.875 37.2031 15.1719 37.2812 14.3906 37.2812C11.0312 37.2812 8.375 36.1875 7.125 34C5.71875 31.4219 6.65625 27.75 9.3125 24C6.65625 20.3281 5.71875 16.6562 7.125 14C8.375 11.8906 11.0312 10.7969 14.3906 10.7969C15.1719 10.7969 15.875 10.875 16.6562 10.9531C18.375 6.73438 21.0312 4 24 4C26.8906 4 29.5469 6.73438 31.2656 10.9531C32.0469 10.875 32.75 10.7969 33.5312 10.7969C36.8906 10.7969 39.5469 11.8906 40.7969 14ZM24 7.75C22.8281 7.75 21.4219 9.23438 20.25 11.6562C21.5 12.0469 22.75 12.4375 24 12.9844C25.1719 12.4375 26.4219 12.0469 27.6719 11.6562C26.5 9.23438 25.0938 7.75 24 7.75ZM14.3906 33.5312C14.7031 33.5312 15.0938 33.4531 15.4062 33.4531C15.0938 32.125 14.8594 30.875 14.625 29.5469C13.6094 28.7656 12.6719 27.9062 11.7344 26.9688C10.25 29.2344 9.78125 31.1875 10.3281 32.2031C10.7969 32.9844 12.3594 33.5312 14.3906 33.5312ZM14.625 18.4531C14.8594 17.2031 15.0938 15.875 15.4062 14.625C15.0938 14.625 14.625 14.5469 14.3906 14.5469C12.3594 14.5469 10.7969 15.0938 10.3281 15.875C9.78125 16.8906 10.25 18.8438 11.7344 21.1094C12.6719 20.1719 13.6094 19.3125 14.625 18.4531ZM24 40.25C25.0938 40.25 26.5 38.8438 27.6719 36.4219C26.4219 36.0312 25.1719 35.6406 24 35.0938C22.75 35.6406 21.5 36.0312 20.25 36.4219C21.4219 38.8438 22.8281 40.25 24 40.25ZM24 31.5C28.0625 31.5 31.4219 28.1406 31.4219 24C31.4219 19.8594 28.1406 16.5 24 16.5C19.8594 16.5 16.5 19.8594 16.5 24C16.5 28.1406 19.8594 31.5 24 31.5ZM37.5938 32.125C38.1406 31.1875 37.6719 29.2344 36.1094 26.9688C35.25 27.9062 34.2344 28.7656 33.2969 29.5469C33.0625 30.875 32.8281 32.125 32.5156 33.4531C32.8281 33.4531 33.2969 33.5312 33.5312 33.5312C35.5625 33.5312 37.125 32.9844 37.5938 32.125ZM36.1875 21.1094C37.6719 18.8438 38.1406 16.8906 37.5938 15.9531C37.125 15.0938 35.5625 14.5469 33.5312 14.5469C33.2188 14.5469 32.8281 14.625 32.5156 14.625C32.8281 15.875 33.0625 17.2031 33.2969 18.4531C34.3125 19.3125 35.25 20.1719 36.1875 21.1094Z" fill="white"/>
</svg>
