<svg width="48" height="48" viewBox="0 0 48 48" fill="none" xmlns="http://www.w3.org/2000/svg">
<path d="M45.375 16.625C46.6367 16.625 47.75 17.6641 47.75 19C47.75 20.3359 46.6367 21.375 45.375 21.375C43.9648 21.375 43.4453 20.4102 43.2969 20.1875H40.625V29.6875C40.625 32.9531 37.9531 35.625 34.6875 35.625H27.5625L18.2852 42.6016C18.0625 42.75 17.9141 42.75 17.7656 42.75C17.0234 42.75 16.875 42.1562 16.875 41.8594V35.625L13.3125 35.5508C9.97266 35.5508 7.375 32.8789 7.375 29.6133V20.1875H4.62891C4.48047 20.2617 3.96094 21.3008 2.625 21.3008C1.28906 21.3008 0.25 20.3359 0.25 19C0.25 17.5898 1.28906 16.625 2.625 16.625C3.96094 16.625 4.48047 17.6641 4.62891 17.8125H7.375V10.6875C7.375 7.42188 9.97266 4.75 13.3125 4.75H34.6875C37.9531 4.75 40.625 7.42188 40.625 10.6875V17.8125H43.2969C43.4453 17.5898 43.9648 16.625 45.375 16.625ZM37.0625 29.6875V10.6875C37.0625 9.42578 35.9492 8.3125 34.6875 8.3125H13.3125C11.9766 8.3125 10.9375 9.42578 10.9375 10.6875V29.6875C10.9375 31.0234 11.9766 32.0625 13.3125 32.0625H20.4375V36.5156L26.375 32.0625H34.6875C35.9492 32.0625 37.0625 30.9492 37.0625 29.6875ZM33.5 11.875C34.7617 11.875 35.875 12.9883 35.875 14.25V23.75C35.875 25.0859 34.7617 26.125 33.5 26.125H14.5C13.1641 26.125 12.125 25.0859 12.125 23.75V14.25C12.125 12.9883 13.1641 11.875 14.5 11.875H33.5ZM18.0625 21.375C19.3242 21.375 20.4375 20.3359 20.4375 19C20.4375 17.7383 19.3242 16.625 18.0625 16.625C16.7266 16.625 15.6875 17.7383 15.6875 19C15.6875 20.3359 16.7266 21.375 18.0625 21.375ZM29.9375 21.375C31.1992 21.375 32.3125 20.3359 32.3125 19C32.3125 17.7383 31.1992 16.625 29.9375 16.625C28.6016 16.625 27.5625 17.7383 27.5625 19C27.5625 20.3359 28.6016 21.375 29.9375 21.375Z" fill="white"/>
</svg>
