<svg width="48" height="48" viewBox="0 0 48 48" fill="none" xmlns="http://www.w3.org/2000/svg">
<path d="M25.5625 22.0469C26.0312 22.125 26.8125 22.2812 27.2031 22.3594C27.9844 22.5938 28.5312 23.4531 28.2969 24.3125C28.0625 25.0938 27.2031 25.6406 26.3438 25.4062C26.1094 25.3281 25.0156 25.0938 24.7031 25.0156C23.6875 24.9375 22.9062 25.0156 22.4375 25.25C21.9688 25.4844 21.8125 25.7188 21.8125 25.875C21.7344 26.1875 21.8125 26.2656 21.8125 26.2656C21.8125 26.3438 21.8906 26.4219 22.125 26.5781C22.5938 26.8906 23.2969 27.125 24.3906 27.4375H24.4688C25.4062 27.75 26.7344 28.1406 27.6719 28.8438C28.1406 29.2344 28.6875 29.7031 29 30.4062C29.3125 31.1094 29.3125 31.8906 29.2344 32.75C28.9219 34.2344 27.9844 35.25 26.7344 35.7188C26.3438 35.875 25.9531 36.0312 25.5625 36.1094V36.5C25.5625 37.4375 24.8594 38.1406 23.9219 38.1406C23.0625 38.1406 22.3594 37.4375 22.3594 36.5V36.0312C21.6562 35.875 20.6406 35.5625 20.0938 35.3281C19.9375 35.25 19.7812 35.25 19.7031 35.1719C18.9219 34.9375 18.4531 34.0781 18.7656 33.2188C19 32.4375 19.8594 31.9688 20.7188 32.2031C20.875 32.2812 21.0312 32.3594 21.1875 32.4375C21.9688 32.6719 22.75 32.9062 23.2188 32.9844C24.2344 33.1406 25.0156 33.0625 25.4844 32.9062C25.9531 32.6719 26.1094 32.4375 26.1094 32.2031C26.1875 31.8906 26.1094 31.7344 26.1094 31.6562C26.1094 31.5781 26.0312 31.5 25.7969 31.3438C25.3281 31.0312 24.625 30.7969 23.5312 30.4062H23.375C22.4375 30.0938 21.2656 29.7812 20.3281 29.1562C19.8594 28.7656 19.3125 28.2969 19 27.5938C18.6875 26.8906 18.6094 26.1094 18.6875 25.3281C19 23.9219 20.0156 22.9062 21.1875 22.4375C21.5 22.2031 21.9688 22.125 22.3594 21.9688V21.5C22.3594 20.6406 23.0625 19.9375 24 19.9375C24.8594 19.9375 25.5625 20.6406 25.5625 21.5V22.0469ZM17.9844 13.4531L13.4531 6.96875C12.5938 5.71875 13.5312 4 15.0156 4H32.9062C34.3906 4 35.3281 5.71875 34.4688 6.96875L29.9375 13.4531C30.6406 13.8438 31.3438 14.3906 32.2031 14.9375C36.9688 18.5312 44 25.4844 44 36.5C44 40.6406 40.6406 44 36.5 44H11.5C7.28125 44 4 40.6406 4 36.5C4 25.4844 10.9531 18.5312 15.7188 14.9375C16.5781 14.3906 17.2812 13.8438 17.9844 13.4531ZM19.9375 16.5781C15.7188 19.3125 7.75 25.6406 7.75 36.5C7.75 38.6094 9.39062 40.25 11.5 40.25H36.5C38.5312 40.25 40.25 38.6094 40.25 36.5C40.25 25.6406 32.2031 19.3125 27.9844 16.5781L26.8906 15.875H21.0312L19.9375 16.5781ZM26.2656 12.125L29.3125 7.75H18.6094L21.6562 12.125H26.2656Z" fill="white"/>
</svg>
