<svg width="1730" height="500" viewBox="0 0 1730 500" fill="none" xmlns="http://www.w3.org/2000/svg">
<g clip-path="url(#clip0_141_195)">
<path d="M1729.67 0.258789H0.329346V35.5529H1729.67V0.258789Z" fill="#BB2E2E"/>
<path d="M287.941 70.8472V367.318H207.471L105.823 189.435V367.318H29.5882V70.8472H110.059L211.706 248.73V70.8472H287.941ZM412.882 312.259H423.471C438.435 312.259 455.376 309.435 474.294 303.788V278.377H412.882C408.647 278.377 405.118 279.788 402.294 282.612C399.471 285.435 398.059 288.965 398.059 293.2V297.435C398.059 301.671 399.471 305.2 402.294 308.024C405.118 310.847 408.647 312.259 412.882 312.259ZM345.118 200.024V147.082C396.788 141.435 443.376 138.612 484.882 138.612C504.082 138.612 519.471 144.4 531.047 155.977C542.623 167.553 548.412 182.941 548.412 202.141V367.318H482.765L478.529 346.141C465.259 354.894 451.635 361.318 437.659 365.412C423.682 369.506 411.894 371.553 402.294 371.553H387.471C368.271 371.553 352.882 365.765 341.306 354.188C329.729 342.612 323.941 327.224 323.941 308.024V288.965C323.941 269.765 329.729 254.377 341.306 242.8C352.882 231.224 368.271 225.435 387.471 225.435H474.294V208.494C474.294 204.259 472.882 200.73 470.059 197.906C467.235 195.082 463.706 193.671 459.471 193.671C441.118 193.671 420.859 194.518 398.694 196.212C376.529 197.906 358.671 199.177 345.118 200.024ZM692.412 278.377H660.647V367.318H586.529V70.8472H660.647V221.2H694.529L741.118 142.847H819.471L755.941 250.847L819.471 367.318H741.118L692.412 278.377ZM919 312.259H929.588C944.553 312.259 961.494 309.435 980.412 303.788V278.377H919C914.765 278.377 911.235 279.788 908.412 282.612C905.588 285.435 904.176 288.965 904.176 293.2V297.435C904.176 301.671 905.588 305.2 908.412 308.024C911.235 310.847 914.765 312.259 919 312.259ZM851.235 200.024V147.082C902.906 141.435 949.494 138.612 991 138.612C1010.2 138.612 1025.59 144.4 1037.16 155.977C1048.74 167.553 1054.53 182.941 1054.53 202.141V367.318H988.882L984.647 346.141C971.376 354.894 957.753 361.318 943.776 365.412C929.8 369.506 918.012 371.553 908.412 371.553H893.588C874.388 371.553 859 365.765 847.424 354.188C835.847 342.612 830.059 327.224 830.059 308.024V288.965C830.059 269.765 835.847 254.377 847.424 242.8C859 231.224 874.388 225.435 893.588 225.435H980.412V208.494C980.412 204.259 979 200.73 976.176 197.906C973.353 195.082 969.823 193.671 965.588 193.671C947.235 193.671 926.976 194.518 904.812 196.212C882.647 197.906 864.788 199.177 851.235 200.024ZM1238.76 138.612H1243C1265.87 138.612 1283.52 147.082 1295.94 164.024C1308.93 155.271 1322.98 148.847 1338.08 144.753C1353.19 140.659 1366.67 138.612 1378.53 138.612H1382.76C1401.96 138.612 1417.35 144.4 1428.93 155.977C1440.51 167.553 1446.29 182.941 1446.29 202.141V367.318H1372.18V214.847C1372.18 210.612 1370.76 207.082 1367.94 204.259C1365.12 201.435 1361.59 200.024 1357.35 200.024H1355.24C1342.53 200.024 1326.29 202.847 1306.53 208.494V367.318H1232.41V214.847C1232.41 210.612 1231 207.082 1228.18 204.259C1225.35 201.435 1221.82 200.024 1217.59 200.024H1215.47C1202.76 200.024 1186.53 202.847 1166.76 208.494V367.318H1092.65V142.847H1158.29L1162.53 164.024C1175.8 155.271 1189.42 148.847 1203.4 144.753C1217.38 140.659 1229.16 138.612 1238.76 138.612ZM1609.35 191.553H1571.24C1559.94 191.553 1554.29 197.2 1554.29 208.494V231.788H1626.29V208.494C1626.29 197.2 1620.65 191.553 1609.35 191.553ZM1691.94 310.141V363.082C1637.45 368.73 1588.04 371.553 1543.71 371.553C1524.51 371.553 1509.12 365.765 1497.54 354.188C1485.96 342.612 1480.18 327.224 1480.18 308.024V206.377C1480.18 185.2 1486.18 168.612 1498.18 156.612C1510.18 144.612 1526.76 138.612 1547.94 138.612H1632.65C1653.82 138.612 1670.41 144.612 1682.41 156.612C1694.41 168.612 1700.41 185.2 1700.41 206.377V284.73H1554.29V301.671C1554.29 305.906 1555.71 309.435 1558.53 312.259C1561.35 315.082 1564.88 316.494 1569.12 316.494C1597.07 316.494 1638.01 314.377 1691.94 310.141Z" fill="#BB2E2E"/>
<path d="M1729.67 413.906H0.329346V499.742H1729.67V413.906Z" fill="#BB2E2E"/>
<path d="M52.3811 484.607V434.984H35.6517V429.054H76.3106V434.984H59.5106V484.607H52.3811ZM107.44 484.607V429.054H114.499V452.349H140.334V429.054H147.464V484.607H140.334V458.419H114.499V484.607H107.44ZM183.887 484.607V429.054H215.864V434.984H190.875V452.419H211.981V458.419H190.875V478.607H216.711V484.607H183.887ZM287.934 484.607V429.054H295.275L315.322 463.925L321.322 475.431H321.675C321.487 472.607 321.299 469.69 321.111 466.678C320.922 463.666 320.828 460.701 320.828 457.784V429.054H327.534V484.607H320.264L300.075 449.596L294.075 438.16H293.722C293.958 440.984 294.169 443.854 294.358 446.772C294.546 449.69 294.64 452.607 294.64 455.525V484.607H287.934ZM363.958 484.607V429.054H395.934V434.984H370.946V452.419H392.052V458.419H370.946V478.607H396.781V484.607H363.958ZM423.393 484.607L439.558 455.878L424.522 429.054H432.287L439.84 443.243C440.593 444.56 441.275 445.831 441.887 447.054C442.546 448.278 443.299 449.69 444.146 451.29H444.499C445.299 449.69 445.981 448.278 446.546 447.054C447.158 445.831 447.793 444.56 448.452 443.243L455.864 429.054H463.275L448.169 456.231L464.334 484.607H456.499L448.381 469.643C447.675 468.278 446.922 466.866 446.122 465.407C445.369 463.996 444.546 462.443 443.652 460.749H443.299C442.499 462.443 441.746 463.996 441.04 465.407C440.287 466.866 439.581 468.278 438.922 469.643L430.875 484.607H423.393ZM504.217 484.607V434.984H487.416V429.054H528.075V434.984H511.346V484.607H504.217ZM593.511 477.407L597.746 472.466C599.722 474.584 602.052 476.278 604.734 477.549C607.417 478.819 610.193 479.454 613.064 479.454C616.734 479.454 619.581 478.607 621.605 476.913C623.628 475.266 624.64 473.078 624.64 470.349C624.64 468.937 624.405 467.737 623.934 466.749C623.464 465.76 622.828 464.913 622.028 464.207C621.181 463.501 620.193 462.866 619.064 462.301C617.934 461.737 616.734 461.149 615.464 460.537L607.487 457.078C606.169 456.513 604.828 455.831 603.464 455.031C602.146 454.231 600.946 453.266 599.864 452.137C598.781 451.007 597.911 449.666 597.252 448.113C596.546 446.56 596.193 444.772 596.193 442.749C596.193 440.678 596.64 438.725 597.534 436.89C598.381 435.101 599.581 433.549 601.134 432.231C602.687 430.913 604.522 429.878 606.64 429.125C608.758 428.372 611.087 427.996 613.628 427.996C616.969 427.996 620.052 428.631 622.875 429.901C625.699 431.172 628.099 432.843 630.075 434.913L626.264 439.431C624.569 437.831 622.687 436.56 620.617 435.619C618.593 434.678 616.264 434.207 613.628 434.207C610.522 434.207 608.028 434.937 606.146 436.396C604.264 437.807 603.322 439.784 603.322 442.325C603.322 443.69 603.581 444.843 604.099 445.784C604.664 446.725 605.393 447.549 606.287 448.254C607.181 448.96 608.169 449.572 609.252 450.09C610.334 450.607 611.44 451.101 612.569 451.572L620.405 454.96C622.005 455.619 623.511 456.396 624.922 457.29C626.334 458.184 627.558 459.196 628.593 460.325C629.581 461.501 630.381 462.866 630.993 464.419C631.558 465.972 631.84 467.76 631.84 469.784C631.84 471.996 631.417 474.066 630.569 475.996C629.675 477.878 628.405 479.549 626.758 481.007C625.158 482.466 623.181 483.596 620.828 484.396C618.522 485.196 615.911 485.596 612.993 485.596C609.087 485.596 605.464 484.866 602.122 483.407C598.781 481.949 595.911 479.949 593.511 477.407ZM684.499 485.596C680.969 485.596 677.746 484.937 674.828 483.619C671.958 482.254 669.464 480.301 667.346 477.76C665.275 475.266 663.652 472.231 662.475 468.654C661.346 465.078 660.781 461.054 660.781 456.584C660.781 452.113 661.346 448.113 662.475 444.584C663.652 441.054 665.275 438.066 667.346 435.619C669.464 433.172 671.958 431.29 674.828 429.972C677.746 428.654 680.969 427.996 684.499 427.996C687.981 427.996 691.181 428.678 694.099 430.043C697.017 431.36 699.534 433.243 701.652 435.69C703.769 438.137 705.393 441.125 706.522 444.654C707.699 448.184 708.287 452.16 708.287 456.584C708.287 461.054 707.699 465.078 706.522 468.654C705.393 472.231 703.769 475.266 701.652 477.76C699.534 480.301 697.017 482.254 694.099 483.619C691.181 484.937 687.981 485.596 684.499 485.596ZM684.499 479.454C686.946 479.454 689.181 478.913 691.205 477.831C693.228 476.749 694.946 475.219 696.358 473.243C697.817 471.219 698.946 468.819 699.746 466.043C700.499 463.219 700.875 460.066 700.875 456.584C700.875 453.149 700.499 450.043 699.746 447.266C698.946 444.49 697.817 442.137 696.358 440.207C694.946 438.278 693.228 436.796 691.205 435.76C689.181 434.725 686.946 434.207 684.499 434.207C682.005 434.207 679.746 434.725 677.722 435.76C675.746 436.796 674.028 438.278 672.569 440.207C671.111 442.137 670.005 444.49 669.252 447.266C668.452 450.043 668.052 453.149 668.052 456.584C668.052 460.066 668.452 463.219 669.252 466.043C670.005 468.819 671.111 471.219 672.569 473.243C674.028 475.219 675.746 476.749 677.722 477.831C679.746 478.913 682.005 479.454 684.499 479.454ZM738.146 456.796C738.146 452.372 738.781 448.372 740.052 444.796C741.275 441.219 742.993 438.207 745.205 435.76C747.417 433.266 750.028 431.36 753.04 430.043C756.052 428.678 759.346 427.996 762.922 427.996C766.311 427.996 769.275 428.701 771.817 430.113C774.358 431.478 776.452 433.078 778.099 434.913L774.075 439.36C772.617 437.807 770.993 436.56 769.205 435.619C767.417 434.678 765.346 434.207 762.993 434.207C760.358 434.207 757.958 434.725 755.793 435.76C753.628 436.796 751.793 438.301 750.287 440.278C748.781 442.207 747.605 444.56 746.758 447.337C745.911 450.113 745.487 453.219 745.487 456.654C745.487 460.137 745.887 463.29 746.687 466.113C747.487 468.89 748.64 471.266 750.146 473.243C751.605 475.219 753.393 476.749 755.511 477.831C757.628 478.913 760.005 479.454 762.64 479.454C765.369 479.454 767.722 478.913 769.699 477.831C771.722 476.749 773.628 475.219 775.417 473.243L779.44 477.549C777.228 480.09 774.734 482.066 771.958 483.478C769.181 484.89 766.028 485.596 762.499 485.596C758.969 485.596 755.722 484.96 752.758 483.69C749.793 482.372 747.228 480.49 745.064 478.043C742.899 475.596 741.205 472.584 739.981 469.007C738.758 465.384 738.146 461.313 738.146 456.796ZM810.922 484.607V429.054H817.981V484.607H810.922ZM861.322 462.019H878.052L875.37 453.549C874.381 450.443 873.44 447.337 872.546 444.231C871.605 441.172 870.687 438.019 869.793 434.772H869.44C868.593 438.019 867.722 441.172 866.828 444.231C865.934 447.337 864.969 450.443 863.934 453.549L861.322 462.019ZM885.04 484.607L879.817 467.666H859.558L854.193 484.607H846.993L865.84 429.054H873.817L892.593 484.607H885.04ZM921.675 484.607V429.054H928.664V478.607H953.017V484.607H921.675ZM1022.26 484.607V429.054H1039.28C1042.33 429.054 1045.13 429.337 1047.68 429.901C1050.22 430.466 1052.38 431.384 1054.17 432.654C1055.96 433.925 1057.35 435.596 1058.33 437.666C1059.32 439.784 1059.82 442.349 1059.82 445.36C1059.82 448.325 1059.32 450.866 1058.33 452.984C1057.35 455.149 1055.93 456.937 1054.1 458.349C1052.31 459.76 1050.17 460.819 1047.68 461.525C1045.13 462.231 1042.33 462.584 1039.28 462.584H1029.32V484.607H1022.26ZM1029.32 456.796H1038.43C1043.32 456.796 1046.92 455.878 1049.23 454.043C1051.58 452.207 1052.76 449.313 1052.76 445.36C1052.76 441.36 1051.58 438.584 1049.23 437.031C1046.83 435.478 1043.23 434.701 1038.43 434.701H1029.32V456.796ZM1092.22 484.607V429.054H1099.28V478.607H1123.56V484.607H1092.22ZM1161.82 462.019H1178.48L1175.86 453.549C1174.83 450.443 1173.86 447.337 1172.97 444.231C1172.08 441.172 1171.18 438.019 1170.29 434.772H1169.93C1169.09 438.019 1168.22 441.172 1167.32 444.231C1166.38 447.337 1165.42 450.443 1164.43 453.549L1161.82 462.019ZM1185.53 484.607L1180.24 467.666H1159.98L1154.69 484.607H1147.49L1166.26 429.054H1174.24L1193.02 484.607H1185.53ZM1229.86 484.607V463.078L1213.2 429.054H1220.76L1227.96 444.725C1228.85 446.749 1229.72 448.749 1230.57 450.725C1231.42 452.701 1232.31 454.725 1233.25 456.796H1233.6C1234.59 454.725 1235.56 452.701 1236.5 450.725C1237.44 448.749 1238.33 446.749 1239.18 444.725L1246.31 429.054H1253.72L1236.99 463.078V484.607H1229.86ZM1278 456.796C1278 452.372 1278.64 448.372 1279.91 444.796C1281.18 441.219 1282.97 438.207 1285.28 435.76C1287.53 433.266 1290.22 431.36 1293.32 430.043C1296.43 428.678 1299.84 427.996 1303.56 427.996C1307.42 427.996 1310.64 428.725 1313.23 430.184C1315.77 431.643 1317.86 433.219 1319.51 434.913L1315.56 439.36C1314.15 437.901 1312.52 436.678 1310.69 435.69C1308.85 434.701 1306.52 434.207 1303.7 434.207C1300.88 434.207 1298.33 434.725 1296.08 435.76C1293.82 436.796 1291.89 438.301 1290.29 440.278C1288.69 442.207 1287.46 444.56 1286.62 447.337C1285.72 450.113 1285.28 453.219 1285.28 456.654C1285.28 460.137 1285.7 463.29 1286.55 466.113C1287.35 468.89 1288.52 471.266 1290.08 473.243C1291.63 475.219 1293.56 476.749 1295.86 477.831C1298.12 478.913 1300.76 479.454 1303.77 479.454C1305.75 479.454 1307.63 479.149 1309.42 478.537C1311.16 477.972 1312.59 477.172 1313.72 476.137V461.666H1302V455.807H1320.22V479.172C1318.38 481.054 1315.98 482.607 1313.02 483.831C1310.05 485.007 1306.71 485.596 1302.99 485.596C1299.32 485.596 1295.96 484.96 1292.9 483.69C1289.84 482.372 1287.23 480.49 1285.06 478.043C1282.85 475.596 1281.11 472.584 1279.84 469.007C1278.62 465.384 1278 461.313 1278 456.796ZM1361.72 434.701V455.384H1371.04C1375.37 455.384 1378.69 454.49 1380.99 452.701C1383.3 450.913 1384.45 448.231 1384.45 444.654C1384.45 440.984 1383.3 438.396 1380.99 436.89C1378.69 435.431 1375.37 434.701 1371.04 434.701H1361.72ZM1393.13 484.607H1385.16L1371.75 461.172H1361.72V484.607H1354.66V429.054H1372.03C1374.85 429.054 1377.46 429.313 1379.86 429.831C1382.26 430.396 1384.33 431.29 1386.08 432.513C1387.77 433.737 1389.11 435.337 1390.1 437.313C1391.04 439.29 1391.51 441.737 1391.51 444.654C1391.51 448.984 1390.38 452.443 1388.12 455.031C1385.86 457.619 1382.85 459.407 1379.09 460.396L1393.13 484.607ZM1445.58 485.596C1442.05 485.596 1438.83 484.937 1435.91 483.619C1433.04 482.254 1430.55 480.301 1428.43 477.76C1426.36 475.266 1424.73 472.231 1423.56 468.654C1422.43 465.078 1421.86 461.054 1421.86 456.584C1421.86 452.113 1422.43 448.113 1423.56 444.584C1424.73 441.054 1426.36 438.066 1428.43 435.619C1430.55 433.172 1433.04 431.29 1435.91 429.972C1438.83 428.654 1442.05 427.996 1445.58 427.996C1449.06 427.996 1452.26 428.678 1455.18 430.043C1458.1 431.36 1460.62 433.243 1462.73 435.69C1464.85 438.137 1466.48 441.125 1467.6 444.654C1468.78 448.184 1469.37 452.16 1469.37 456.584C1469.37 461.054 1468.78 465.078 1467.6 468.654C1466.48 472.231 1464.85 475.266 1462.73 477.76C1460.62 480.301 1458.1 482.254 1455.18 483.619C1452.26 484.937 1449.06 485.596 1445.58 485.596ZM1445.58 479.454C1448.03 479.454 1450.26 478.913 1452.29 477.831C1454.31 476.749 1456.03 475.219 1457.44 473.243C1458.9 471.219 1460.03 468.819 1460.83 466.043C1461.58 463.219 1461.96 460.066 1461.96 456.584C1461.96 453.149 1461.58 450.043 1460.83 447.266C1460.03 444.49 1458.9 442.137 1457.44 440.207C1456.03 438.278 1454.31 436.796 1452.29 435.76C1450.26 434.725 1448.03 434.207 1445.58 434.207C1443.09 434.207 1440.83 434.725 1438.8 435.76C1436.83 436.796 1435.11 438.278 1433.65 440.207C1432.19 442.137 1431.09 444.49 1430.33 447.266C1429.53 450.043 1429.13 453.149 1429.13 456.584C1429.13 460.066 1429.53 463.219 1430.33 466.043C1431.09 468.819 1432.19 471.219 1433.65 473.243C1435.11 475.219 1436.83 476.749 1438.8 477.831C1440.83 478.913 1443.09 479.454 1445.58 479.454ZM1502.19 461.666V429.054H1509.25V461.807C1509.25 465.149 1509.58 467.949 1510.24 470.207C1510.95 472.466 1511.86 474.278 1512.99 475.643C1514.17 477.007 1515.56 477.972 1517.16 478.537C1518.71 479.149 1520.4 479.454 1522.24 479.454C1524.08 479.454 1525.79 479.149 1527.39 478.537C1528.95 477.972 1530.33 477.007 1531.56 475.643C1532.73 474.278 1533.65 472.466 1534.31 470.207C1535.02 467.949 1535.37 465.149 1535.37 461.807V429.054H1542.15V461.666C1542.15 466.137 1541.63 469.878 1540.59 472.89C1539.56 475.949 1538.17 478.419 1536.43 480.301C1534.64 482.231 1532.52 483.596 1530.08 484.396C1527.68 485.196 1525.06 485.596 1522.24 485.596C1519.42 485.596 1516.76 485.196 1514.26 484.396C1511.82 483.596 1509.7 482.231 1507.91 480.301C1506.17 478.419 1504.78 475.949 1503.75 472.89C1502.71 469.878 1502.19 466.137 1502.19 461.666ZM1578.29 484.607V429.054H1585.56L1605.68 463.925L1611.68 475.431H1612.03C1611.84 472.607 1611.65 469.69 1611.46 466.678C1611.28 463.666 1611.18 460.701 1611.18 457.784V429.054H1617.82V484.607H1610.55L1590.43 449.596L1584.36 438.16H1584.08C1584.26 440.984 1584.48 443.854 1584.71 446.772C1584.9 449.69 1584.99 452.607 1584.99 455.525V484.607H1578.29ZM1654.24 484.607V429.054H1668.15C1676.76 429.054 1683.28 431.431 1687.7 436.184C1692.17 440.89 1694.4 447.69 1694.4 456.584C1694.4 460.96 1693.84 464.89 1692.71 468.372C1691.58 471.854 1689.91 474.796 1687.7 477.196C1685.53 479.596 1682.83 481.431 1679.58 482.701C1676.38 483.972 1672.69 484.607 1668.5 484.607H1654.24ZM1661.3 478.819H1667.65C1674.15 478.819 1679.02 476.89 1682.26 473.031C1685.51 469.125 1687.13 463.643 1687.13 456.584C1687.13 449.525 1685.51 444.137 1682.26 440.419C1679.02 436.654 1674.15 434.772 1667.65 434.772H1661.3V478.819Z" fill="white"/>
</g>
<defs>
<clipPath id="clip0_141_195">
<rect width="1730" height="500" fill="white"/>
</clipPath>
</defs>
</svg>
