<svg width="32" height="32" viewBox="0 0 32 32" fill="none" xmlns="http://www.w3.org/2000/svg">
<rect width="32" height="32" rx="2" fill="white" fill-opacity="0.1"/>
<path d="M23 14.5625C21.5938 14.5938 20.2812 14.1562 19.1562 13.3438V18.9375C19.1562 22.8438 14.9062 25.2812 11.5312 23.3438C8.15625 21.375 8.15625 16.5 11.5312 14.5312C12.5 13.9688 13.6562 13.75 14.7812 13.9062V16.7188C13.0625 16.1562 11.4062 17.6875 11.7812 19.4375C12.1875 21.1875 14.3125 21.875 15.6562 20.6562C16.125 20.2188 16.4062 19.5938 16.4062 18.9375V8H19.1562C19.1562 8.25 19.1562 8.46875 19.2188 8.71875C19.4062 9.75 20 10.6562 20.9062 11.2188C21.5 11.625 22.25 11.8438 23 11.8438V14.5625Z" fill="white"/>
</svg>
