<svg width="32" height="32" viewBox="0 0 32 32" fill="none" xmlns="http://www.w3.org/2000/svg">
<rect width="32" height="32" rx="2" fill="white" fill-opacity="0.1"/>
<path d="M24.1562 11.9062C24.5312 13.2188 24.5312 16.0312 24.5312 16.0312C24.5312 16.0312 24.5312 18.8125 24.1562 20.1562C23.9688 20.9062 23.375 21.4688 22.6562 21.6562C21.3125 22 16 22 16 22C16 22 10.6562 22 9.3125 21.6562C8.59375 21.4688 8 20.9062 7.8125 20.1562C7.4375 18.8125 7.4375 16.0312 7.4375 16.0312C7.4375 16.0312 7.4375 13.2188 7.8125 11.9062C8 11.1562 8.59375 10.5625 9.3125 10.375C10.6562 10 16 10 16 10C16 10 21.3125 10 22.6562 10.375C23.375 10.5625 23.9688 11.1562 24.1562 11.9062ZM14.25 18.5625L18.6875 16.0312L14.25 13.5V18.5625Z" fill="white"/>
</svg>
